# Blender 5.0.0 Beta
# www.blender.org
mtllib clavicle_l.mtl
o clavicle_l
v -0.015461 0.019583 -0.112750
v -0.014508 0.018686 -0.120072
v -0.014287 0.015635 -0.112845
v -0.017811 0.017403 -0.107749
v -0.018229 0.022388 -0.114099
v -0.023962 0.023763 -0.120328
v -0.020206 0.019840 -0.121927
v -0.018354 0.015129 -0.116572
v -0.018072 0.015107 -0.106785
v -0.021974 0.022730 -0.109208
v -0.019474 0.016424 -0.104235
v -0.019747 0.014566 -0.101646
v -0.026414 0.025085 -0.117320
v -0.024940 0.020921 -0.122953
v -0.022893 0.016358 -0.120200
v -0.026242 0.015058 -0.118234
v -0.022425 0.014091 -0.107707
v -0.024322 0.014046 -0.102691
v -0.029703 0.025913 -0.111392
v -0.024155 0.022168 -0.103715
v -0.019669 0.015672 -0.099142
v -0.021237 0.014320 -0.096229
v -0.025265 0.013465 -0.096135
v -0.029045 0.023225 -0.121027
v -0.028730 0.017942 -0.121703
v -0.029312 0.015079 -0.108593
v -0.034878 0.014556 -0.115943
v -0.036272 0.016337 -0.116430
v -0.030343 0.015036 -0.103228
v -0.031830 0.013881 -0.096411
v -0.037779 0.025399 -0.111543
v -0.034770 0.024348 -0.115894
v -0.031527 0.026082 -0.104814
v -0.025963 0.022045 -0.098219
v -0.019774 0.015140 -0.094805
v -0.020603 0.013754 -0.092810
v -0.025137 0.012438 -0.091667
v -0.033231 0.012053 -0.088937
v -0.039013 0.016832 -0.109364
v -0.039160 0.020297 -0.102021
v -0.040312 0.019422 -0.110765
v -0.036280 0.019438 -0.096994
v -0.035040 0.014333 -0.088744
v -0.038272 0.025757 -0.104650
v -0.030216 0.024912 -0.097733
v -0.025391 0.020469 -0.091853
v -0.018683 0.013279 -0.089877
v -0.020334 0.012755 -0.089393
v -0.024928 0.011326 -0.086708
v -0.034433 0.009934 -0.083363
v -0.029334 0.010485 -0.085001
v -0.039181 0.023714 -0.103524
v -0.037176 0.022110 -0.096908
v -0.035306 0.019424 -0.088375
v -0.034627 0.016878 -0.082444
v -0.036547 0.024830 -0.097869
v -0.029088 0.024646 -0.091253
v -0.022782 0.019692 -0.086498
v -0.016583 0.011743 -0.084563
v -0.016573 0.010106 -0.083539
v -0.021082 0.009789 -0.080676
v -0.018491 0.009077 -0.082570
v -0.026790 0.008838 -0.076156
v -0.023481 0.010035 -0.078897
v -0.028026 0.014457 -0.074997
v -0.033275 0.023454 -0.088859
v -0.031262 0.021554 -0.083324
v -0.025445 0.019210 -0.075211
v -0.025931 0.022351 -0.084445
v -0.017580 0.014639 -0.082084
v -0.018194 0.017071 -0.080528
v -0.015271 0.012531 -0.082085
v -0.012871 0.009883 -0.078561
v -0.013406 0.007373 -0.078356
v -0.015927 0.005819 -0.077370
v -0.020827 0.008177 -0.072442
v -0.017785 0.007523 -0.074930
v -0.023489 0.012929 -0.070134
v -0.022856 0.008263 -0.070502
v -0.020814 0.017891 -0.071104
v -0.020575 0.019504 -0.077360
v -0.017592 0.017682 -0.072766
v -0.013116 0.011259 -0.077768
v -0.013447 0.012129 -0.077307
v -0.014532 0.015098 -0.075320
v -0.008842 0.007878 -0.072640
v -0.008652 0.006379 -0.071883
v -0.012155 0.001530 -0.070485
v -0.013696 0.004752 -0.069147
v -0.018185 0.007056 -0.065609
v -0.016012 0.006111 -0.067197
v -0.016500 0.015521 -0.066593
v -0.018816 0.011720 -0.065231
v -0.013923 0.015556 -0.068095
v -0.011138 0.013063 -0.070317
v -0.004260 0.005408 -0.066124
v -0.007483 -0.000119 -0.064890
v -0.004285 0.003074 -0.065729
v -0.010276 0.003109 -0.062280
v -0.013774 0.008713 -0.059155
v -0.013603 0.005629 -0.059951
v -0.009791 0.012147 -0.061915
v -0.011457 0.012512 -0.060506
v -0.006504 0.009660 -0.064486
v 0.000064 0.000058 -0.058486
v -0.000047 0.003254 -0.059233
v -0.006928 0.000218 -0.056124
v -0.003917 -0.002620 -0.057671
v -0.009939 0.002612 -0.053876
v -0.009743 0.006862 -0.052689
v -0.002018 0.007423 -0.057914
v -0.005023 0.009666 -0.056212
v -0.007606 0.010522 -0.053776
v -0.000805 -0.005034 -0.049313
v 0.003811 -0.002462 -0.049743
v 0.000550 0.005796 -0.053742
v 0.001787 0.003975 -0.049864
v 0.003204 -0.000165 -0.051066
v -0.006736 -0.000024 -0.045581
v -0.003354 -0.003320 -0.048047
v -0.006358 0.004223 -0.045204
v -0.002668 0.008024 -0.044219
v 0.000231 0.006885 -0.044944
v -0.002306 -0.005742 -0.040869
v 0.001798 -0.007300 -0.042396
v 0.006220 -0.004128 -0.042181
v 0.006669 -0.001406 -0.042325
v 0.005113 0.002863 -0.041852
v 0.002422 0.006168 -0.040552
v -0.004171 0.002456 -0.037608
v -0.004317 -0.002886 -0.037689
v -0.000387 0.007226 -0.039336
v -0.001537 -0.006430 -0.036718
v 0.003303 -0.009218 -0.036515
v 0.006764 -0.006714 -0.035192
v 0.008429 -0.002677 -0.034057
v 0.007600 0.001838 -0.031087
v 0.003583 0.005406 -0.030784
v -0.003193 0.001559 -0.029910
v 0.000958 0.006454 -0.030390
v -0.003735 -0.004760 -0.030079
v -0.001469 -0.008470 -0.029296
v 0.003695 -0.010935 -0.029884
v 0.007850 -0.007683 -0.029331
v 0.008861 -0.001601 -0.028513
v 0.003848 0.005458 -0.028234
v 0.007240 0.001482 -0.020972
v 0.003071 0.003136 -0.024587
v 0.009423 -0.001699 -0.021381
v 0.000483 0.006081 -0.026212
v -0.003938 0.000384 -0.024009
v -0.004226 -0.005444 -0.022328
v -0.001619 -0.010322 -0.020761
v 0.004048 -0.012323 -0.022406
v 0.008567 -0.008778 -0.022393
v 0.009876 -0.003604 -0.015047
v 0.007262 0.001266 -0.014278
v -0.000092 0.006084 -0.021443
v 0.003689 0.005619 -0.014192
v 0.008910 -0.009727 -0.015615
v -0.005334 0.000347 -0.019350
v -0.005953 -0.004610 -0.017199
v -0.003193 -0.007580 -0.011724
v -0.001521 -0.011672 -0.010384
v 0.004940 -0.013585 -0.014487
v 0.007817 -0.008810 -0.008266
v 0.009944 -0.004603 -0.008483
v 0.008019 0.001159 -0.007959
v -0.000869 0.007730 -0.014550
v 0.004361 0.005007 -0.008195
v 0.005188 -0.012564 -0.009260
v -0.007664 0.001094 -0.012573
v -0.007429 -0.007545 -0.009904
v -0.008970 -0.004165 -0.010355
v -0.004747 -0.010713 -0.008332
v -0.001369 -0.012975 -0.006786
v 0.006512 -0.010545 -0.000674
v 0.007595 -0.007499 0.000966
v 0.006488 -0.002145 0.000865
v 0.008323 -0.001066 -0.006310
v 0.006174 0.004419 -0.004584
v -0.003925 0.009105 -0.009351
v 0.002841 0.008143 -0.004804
v -0.003565 0.010734 -0.004744
v 0.001760 -0.012102 -0.003101
v -0.010225 0.002628 -0.007184
v -0.012273 -0.009094 -0.002932
v -0.006665 -0.011926 -0.004643
v -0.012774 -0.002737 -0.004354
v -0.000018 -0.000017 0.000001
v 0.006474 0.002655 0.000316
v 0.000807 -0.004759 -0.000379
v 0.002677 0.006554 -0.000697
v -0.010281 0.004955 -0.002858
v -0.001946 0.004803 -0.000708
v -0.005948 -0.011522 -0.001560
v -0.014199 -0.002013 0.000299
v -0.013640 -0.008983 0.000515
v -0.007323 0.000375 0.001184
v -0.006463 -0.006896 0.000835
v -0.004407 -0.002805 -0.038179
v -0.006922 0.000288 -0.046006
v -0.006924 -0.000169 -0.045305
vn 0.8239 0.5410 0.1691
vn 0.9696 -0.0300 -0.2429
vn 0.5284 -0.7130 0.4610
vn 0.7333 0.4534 0.5067
vn 0.5086 0.8516 0.1268
vn 0.2643 0.7926 -0.5494
vn 0.3404 -0.1967 -0.9195
vn 0.2202 -0.9278 -0.3010
vn 0.5303 -0.8147 0.2346
vn 0.5021 0.8150 0.2893
vn 0.8599 0.3730 0.3485
vn 0.7795 -0.5504 0.2992
vn 0.1106 0.9544 -0.2773
vn 0.0236 0.2239 -0.9743
vn 0.1523 -0.7080 -0.6896
vn -0.0478 -0.9272 -0.3715
vn 0.0069 -1.0000 0.0043
vn 0.0202 -0.9992 -0.0353
vn 0.1094 0.9889 -0.1002
vn 0.5818 0.7868 0.2061
vn 0.9939 -0.0836 0.0715
vn 0.4903 -0.8706 -0.0405
vn 0.0712 -0.9919 -0.1054
vn -0.2500 0.6649 -0.7039
vn -0.3103 -0.3752 -0.8735
vn -0.1970 -0.9746 0.1062
vn -0.4360 -0.8609 -0.2624
vn -0.6146 -0.2799 -0.7375
vn -0.3787 -0.9223 -0.0776
vn -0.4401 -0.8666 -0.2353
vn -0.5188 0.7574 -0.3965
vn -0.4886 0.5390 -0.6861
vn 0.2257 0.9733 0.0412
vn 0.6189 0.7737 0.1358
vn 0.9975 -0.0413 -0.0571
vn 0.4223 -0.8908 -0.1678
vn 0.1263 -0.9755 -0.1799
vn -0.2346 -0.9241 -0.3018
vn -0.7492 -0.6470 0.1416
vn -0.8087 -0.5453 0.2205
vn -0.9677 -0.1038 -0.2298
vn -0.8646 -0.5018 0.0255
vn -0.9273 -0.3455 -0.1441
vn -0.5469 0.8370 0.0201
vn 0.3179 0.9463 0.0588
vn 0.7115 0.7017 -0.0375
vn 0.9240 -0.0504 -0.3790
vn 0.1489 -0.9266 -0.3453
vn 0.0793 -0.9744 -0.2105
vn -0.7357 -0.6697 0.1010
vn 0.0506 -0.9657 -0.2545
vn -0.9692 0.1910 0.1557
vn -0.9495 0.1223 0.2890
vn -0.9584 0.1988 0.2048
vn -0.8824 0.2542 0.3960
vn -0.5443 0.8106 0.2159
vn 0.3438 0.9388 0.0222
vn 0.7432 0.6347 -0.2115
vn 0.8782 0.1462 -0.4555
vn 0.4357 -0.7291 -0.5278
vn -0.2433 -0.9507 -0.1925
vn -0.2519 -0.9071 -0.3371
vn -0.3553 -0.9088 0.2189
vn -0.0517 -0.9871 -0.1517
vn -0.7287 0.1091 0.6761
vn -0.5355 0.7772 0.3305
vn -0.4182 0.8220 0.3867
vn -0.3145 0.8161 0.4848
vn 0.2974 0.9460 0.1287
vn 0.7553 0.5516 -0.3539
vn 0.7234 0.6396 -0.2602
vn 0.8029 0.4709 -0.3655
vn 0.8734 0.0214 -0.4865
vn 0.6172 -0.5414 -0.5709
vn -0.3120 -0.8983 -0.3094
vn -0.2673 -0.9580 -0.1035
vn -0.4856 -0.8713 -0.0707
vn -0.7341 0.1733 0.6566
vn -0.5778 -0.7537 0.3133
vn -0.2492 0.8116 0.5284
vn 0.3398 0.9360 0.0922
vn 0.3896 0.9187 0.0658
vn 0.8143 0.4895 -0.3121
vn 0.8008 0.4847 -0.3519
vn 0.7240 0.6555 -0.2147
vn 0.8580 0.2841 -0.4280
vn 0.7150 -0.3925 -0.5786
vn -0.2192 -0.9461 -0.2385
vn -0.6892 -0.7172 0.1029
vn -0.6638 -0.6584 0.3547
vn -0.4391 -0.8981 0.0253
vn -0.2393 0.8037 0.5448
vn -0.7361 0.1611 0.6575
vn 0.4204 0.8983 0.1275
vn 0.7268 0.6547 -0.2077
vn 0.8705 0.1431 -0.4709
vn -0.0954 -0.9537 -0.2854
vn 0.6611 -0.4988 -0.5605
vn -0.6477 -0.7543 0.1078
vn -0.7616 0.2283 0.6065
vn -0.7726 -0.5550 0.3083
vn 0.4411 0.8945 0.0733
vn -0.1630 0.9064 0.3897
vn 0.7213 0.6675 -0.1850
vn 0.7260 -0.4979 -0.4744
vn 0.9150 0.2443 -0.3211
vn -0.6749 -0.7378 0.0130
vn -0.1010 -0.9580 -0.2685
vn -0.8689 -0.4519 0.2021
vn -0.8262 0.3005 0.4765
vn 0.6758 0.7169 -0.1713
vn 0.4417 0.8972 0.0062
vn -0.0667 0.9635 0.2593
vn -0.0446 -0.9608 -0.2735
vn 0.8108 -0.4525 -0.3713
vn 0.8476 0.5111 -0.1427
vn 0.8650 0.4629 -0.1935
vn 0.9516 0.1358 -0.2756
vn -0.9142 -0.3788 0.1441
vn -0.6912 -0.7204 -0.0570
vn -0.8720 0.3322 0.3595
vn -0.2172 0.9419 0.2564
vn 0.5635 0.8246 -0.0494
vn -0.6057 -0.7898 -0.0966
vn 0.1744 -0.9395 -0.2950
vn 0.8436 -0.4568 -0.2824
vn 0.9717 0.0686 -0.2262
vn 0.8668 0.4668 -0.1753
vn 0.5715 0.8161 -0.0856
vn -0.9065 0.3738 0.1964
vn -0.9331 -0.3582 0.0306
vn -0.2177 0.9632 0.1575
vn -0.6875 -0.7191 -0.1015
vn 0.0077 -0.9717 -0.2360
vn 0.8267 -0.5307 -0.1870
vn 0.9919 0.0151 -0.1265
vn 0.8110 0.5850 0.0084
vn 0.4937 0.8691 -0.0306
vn -0.9281 0.3724 -0.0038
vn -0.2578 0.9656 0.0339
vn -0.9576 -0.2684 -0.1050
vn -0.6651 -0.7259 -0.1751
vn 0.1294 -0.9724 -0.1939
vn 0.8450 -0.5211 -0.1203
vn 0.9985 0.0257 -0.0487
vn 0.5298 0.8234 0.2032
vn 0.6776 0.7333 0.0554
vn 0.5979 0.7938 0.1112
vn 0.9830 0.1834 0.0059
vn -0.2175 0.9704 0.1047
vn -0.9257 0.3302 -0.1845
vn -0.9350 -0.2782 -0.2199
vn -0.6454 -0.7545 -0.1192
vn 0.2595 -0.9555 -0.1402
vn 0.8741 -0.4782 -0.0856
vn 0.9889 0.1327 0.0668
vn 0.7995 0.5996 -0.0349
vn -0.1372 0.9617 -0.2373
vn 0.6243 0.7738 -0.1077
vn 0.8987 -0.4312 0.0796
vn -0.8859 0.3044 -0.3499
vn -0.8540 -0.4010 -0.3315
vn -0.6039 -0.6865 -0.4049
vn -0.4604 -0.8576 -0.2292
vn 0.2168 -0.9762 -0.0056
vn 0.9213 -0.3071 0.2385
vn 0.9641 0.0973 0.2471
vn 0.8660 0.4996 0.0198
vn -0.1689 0.9419 -0.2904
vn 0.5724 0.7941 -0.2045
vn 0.3813 -0.9156 0.1276
vn -0.8258 0.2910 -0.4831
vn -0.5143 -0.6722 -0.5326
vn -0.8429 -0.1556 -0.5150
vn -0.4275 -0.7270 -0.5373
vn -0.1687 -0.9791 -0.1132
vn 0.2556 -0.7067 0.6597
vn 0.8002 -0.1850 0.5705
vn 0.2461 -0.0680 0.9668
vn 0.9268 0.1185 0.3564
vn 0.8150 0.5760 0.0635
vn -0.3672 0.8266 -0.4264
vn 0.5851 0.8088 -0.0592
vn 0.0013 0.9836 0.1801
vn -0.0400 -0.7804 0.6240
vn -0.8340 0.3167 -0.4518
vn -0.7490 -0.5564 -0.3598
vn -0.3400 -0.9310 -0.1329
vn -0.8885 -0.0009 -0.4589
vn -0.0491 0.0899 0.9947
vn 0.4863 0.3627 0.7949
vn 0.0514 -0.1849 0.9814
vn 0.3205 0.7155 0.6207
vn -0.6383 0.7092 0.2994
vn -0.1419 0.3933 0.9084
vn -0.0774 -0.7854 0.6141
vn -0.9673 0.2359 0.0934
vn -0.4597 -0.4518 0.7645
vn -0.0648 0.2149 0.9745
vn 0.0867 -0.2099 0.9739
vn -0.5707 0.7146 0.4046
s 1
f 1//1 3//3 2//2
f 4//4 3//3 1//1
f 1//1 2//2 5//5
f 4//4 1//1 5//5
f 6//6 2//2 7//7
f 8//8 7//7 2//2
f 3//3 8//8 2//2
f 6//6 5//5 2//2
f 9//9 8//8 3//3
f 4//4 9//9 3//3
f 4//4 5//5 10//10
f 10//10 11//11 4//4
f 12//12 4//4 11//11
f 12//12 9//9 4//4
f 5//5 13//13 10//10
f 5//5 6//6 13//13
f 14//14 13//13 6//6
f 6//6 7//7 14//14
f 15//15 14//14 7//7
f 8//8 15//15 7//7
f 8//8 16//16 15//15
f 9//9 17//17 8//8
f 8//8 17//17 16//16
f 9//9 18//18 17//17
f 9//9 12//12 18//18
f 13//13 19//19 10//10
f 20//20 10//10 19//19
f 10//10 20//20 11//11
f 20//20 21//21 11//11
f 22//22 11//11 21//21
f 22//22 12//12 11//11
f 12//12 23//23 18//18
f 12//12 22//22 23//23
f 24//24 19//19 13//13
f 14//14 24//24 13//13
f 24//24 14//14 25//25
f 25//25 14//14 15//15
f 25//25 15//15 16//16
f 16//16 17//17 26//26
f 16//16 26//26 27//27
f 28//28 16//16 27//27
f 28//28 25//25 16//16
f 29//29 17//17 18//18
f 29//29 26//26 17//17
f 30//30 18//18 23//23
f 30//30 29//29 18//18
f 31//31 19//19 32//32
f 20//20 19//19 33//33
f 24//24 32//32 19//19
f 33//33 19//19 31//31
f 34//34 20//20 33//33
f 20//20 34//34 21//21
f 34//34 35//35 21//21
f 21//21 36//36 22//22
f 21//21 35//35 36//36
f 22//22 37//37 23//23
f 22//22 36//36 37//37
f 38//38 23//23 37//37
f 38//38 30//30 23//23
f 32//32 24//24 25//25
f 32//32 25//25 28//28
f 39//39 27//27 26//26
f 40//40 26//26 29//29
f 40//40 39//39 26//26
f 41//41 27//27 39//39
f 41//41 28//28 27//27
f 31//31 28//28 41//41
f 31//31 32//32 28//28
f 42//42 29//29 30//30
f 42//42 40//40 29//29
f 43//43 30//30 38//38
f 43//43 42//42 30//30
f 33//33 31//31 44//44
f 44//44 31//31 41//41
f 34//34 33//33 45//45
f 45//45 33//33 44//44
f 46//46 34//34 45//45
f 34//34 46//46 35//35
f 46//46 47//47 35//35
f 48//48 35//35 47//47
f 48//48 36//36 35//35
f 36//36 49//49 37//37
f 36//36 48//48 49//49
f 49//49 38//38 37//37
f 43//43 38//38 50//50
f 51//51 50//50 38//38
f 49//49 51//51 38//38
f 52//52 39//39 40//40
f 52//52 41//41 39//39
f 53//53 40//40 42//42
f 53//53 52//52 40//40
f 44//44 41//41 52//52
f 54//54 42//42 43//43
f 54//54 53//53 42//42
f 55//55 43//43 50//50
f 55//55 54//54 43//43
f 45//45 44//44 56//56
f 56//56 44//44 52//52
f 46//46 45//45 57//57
f 57//57 45//45 56//56
f 58//58 46//46 57//57
f 46//46 58//58 47//47
f 58//58 59//59 47//47
f 60//60 47//47 59//59
f 60//60 48//48 47//47
f 48//48 61//61 49//49
f 62//62 48//48 60//60
f 48//48 62//62 61//61
f 63//63 49//49 64//64
f 61//61 64//64 49//49
f 63//63 51//51 49//49
f 51//51 63//63 50//50
f 65//65 50//50 63//63
f 65//65 55//55 50//50
f 56//56 52//52 53//53
f 66//66 53//53 54//54
f 66//66 56//56 53//53
f 67//67 54//54 55//55
f 67//67 66//66 54//54
f 68//68 55//55 65//65
f 68//68 67//67 55//55
f 57//57 56//56 66//66
f 58//58 57//57 69//69
f 69//69 57//57 66//66
f 70//70 58//58 71//71
f 71//71 58//58 69//69
f 58//58 70//70 59//59
f 72//72 59//59 70//70
f 72//72 73//73 59//59
f 74//74 59//59 73//73
f 74//74 60//60 59//59
f 75//75 60//60 74//74
f 75//75 62//62 60//60
f 76//76 61//61 77//77
f 76//76 64//64 61//61
f 77//77 61//61 62//62
f 77//77 62//62 75//75
f 63//63 78//78 65//65
f 79//79 63//63 64//64
f 63//63 79//79 78//78
f 79//79 64//64 76//76
f 80//80 65//65 78//78
f 80//80 68//68 65//65
f 69//69 66//66 67//67
f 81//81 67//67 68//68
f 81//81 69//69 67//67
f 82//82 68//68 80//80
f 82//82 81//81 68//68
f 71//71 69//69 81//81
f 83//83 70//70 84//84
f 83//83 72//72 70//70
f 84//84 70//70 71//71
f 84//84 71//71 85//85
f 85//85 71//71 81//81
f 72//72 83//83 73//73
f 83//83 86//86 73//73
f 87//87 73//73 86//86
f 87//87 74//74 73//73
f 88//88 74//74 87//87
f 88//88 75//75 74//74
f 89//89 75//75 88//88
f 89//89 77//77 75//75
f 90//90 76//76 91//91
f 90//90 79//79 76//76
f 91//91 76//76 77//77
f 91//91 77//77 89//89
f 92//92 78//78 93//93
f 93//93 78//78 79//79
f 92//92 80//80 78//78
f 93//93 79//79 90//90
f 94//94 80//80 92//92
f 94//94 82//82 80//80
f 85//85 81//81 82//82
f 95//95 82//82 94//94
f 95//95 85//85 82//82
f 83//83 84//84 86//86
f 86//86 84//84 85//85
f 86//86 85//85 95//95
f 95//95 96//96 86//86
f 96//96 87//87 86//86
f 97//97 87//87 98//98
f 97//97 88//88 87//87
f 96//96 98//98 87//87
f 99//99 88//88 97//97
f 99//99 89//89 88//88
f 99//99 91//91 89//89
f 100//100 90//90 101//101
f 101//101 90//90 91//91
f 100//100 93//93 90//90
f 101//101 91//91 99//99
f 102//102 92//92 103//103
f 100//100 92//92 93//93
f 102//102 94//94 92//92
f 100//100 103//103 92//92
f 104//104 94//94 102//102
f 104//104 95//95 94//94
f 95//95 104//104 96//96
f 96//96 105//105 98//98
f 106//106 96//96 104//104
f 96//96 106//106 105//105
f 107//107 97//97 108//108
f 107//107 99//99 97//97
f 108//108 97//97 98//98
f 108//108 98//98 105//105
f 109//109 99//99 107//107
f 109//109 101//101 99//99
f 110//110 100//100 101//101
f 103//103 100//100 110//110
f 110//110 101//101 109//109
f 111//111 102//102 112//112
f 111//111 104//104 102//102
f 112//112 102//102 103//103
f 103//103 110//110 113//113
f 112//112 103//103 113//113
f 106//106 104//104 111//111
f 114//114 105//105 115//115
f 106//106 115//115 105//105
f 114//114 108//108 105//105
f 116//116 106//106 111//111
f 106//106 116//116 117//117
f 118//118 106//106 117//117
f 106//106 118//118 115//115
f 107//107 119//119 109//109
f 120//120 107//107 108//108
f 107//107 120//120 119//119
f 120//120 108//108 114//114
f 121//121 109//109 119//119
f 121//121 110//110 109//109
f 122//122 110//110 121//121
f 122//122 113//113 110//110
f 123//123 111//111 112//112
f 123//123 116//116 111//111
f 113//113 123//123 112//112
f 113//113 122//122 123//123
f 124//124 114//114 125//125
f 124//124 120//120 114//114
f 125//125 114//114 115//115
f 125//125 115//115 126//126
f 118//118 126//126 115//115
f 116//116 123//123 117//117
f 127//127 117//117 128//128
f 129//129 117//117 123//123
f 127//127 118//118 117//117
f 129//129 128//128 117//117
f 118//118 127//127 126//126
f 130//130 119//119 131//131
f 121//121 119//119 130//130
f 120//120 131//131 119//119
f 120//120 124//124 131//131
f 121//121 132//132 122//122
f 121//121 130//130 132//132
f 122//122 129//129 123//123
f 122//122 132//132 129//129
f 133//133 131//131 124//124
f 134//134 124//124 125//125
f 133//133 124//124 134//134
f 134//134 125//125 126//126
f 134//134 126//126 135//135
f 127//127 135//135 126//126
f 136//136 127//127 128//128
f 127//127 136//136 135//135
f 136//136 128//128 137//137
f 137//137 128//128 129//129
f 132//132 138//138 129//129
f 137//137 129//129 138//138
f 130//130 131//131 139//139
f 130//130 140//140 132//132
f 130//130 139//139 140//140
f 139//139 131//131 141//141
f 141//141 131//131 133//133
f 132//132 140//140 138//138
f 141//141 133//133 142//142
f 142//142 133//133 134//134
f 142//142 134//134 143//143
f 143//143 134//134 135//135
f 143//143 135//135 144//144
f 136//136 144//144 135//135
f 145//145 136//136 137//137
f 136//136 145//145 144//144
f 146//146 137//137 138//138
f 147//147 137//137 148//148
f 149//149 137//137 147//147
f 148//148 137//137 146//146
f 149//149 145//145 137//137
f 140//140 146//146 138//138
f 139//139 150//150 140//140
f 151//151 139//139 141//141
f 139//139 151//151 150//150
f 140//140 150//150 146//146
f 151//151 141//141 152//152
f 142//142 152//152 141//141
f 152//152 142//142 153//153
f 143//143 153//153 142//142
f 153//153 143//143 154//154
f 154//154 143//143 144//144
f 154//154 144//144 155//155
f 145//145 155//155 144//144
f 145//145 149//149 155//155
f 150//150 148//148 146//146
f 156//156 147//147 157//157
f 148//148 157//157 147//147
f 156//156 149//149 147//147
f 158//158 159//159 148//148
f 150//150 158//158 148//148
f 148//148 159//159 157//157
f 149//149 160//160 155//155
f 149//149 156//156 160//160
f 151//151 158//158 150//150
f 161//161 151//151 152//152
f 151//151 161//161 158//158
f 162//162 152//152 153//153
f 161//161 152//152 162//162
f 163//163 162//162 153//153
f 164//164 163//163 153//153
f 165//165 153//153 154//154
f 165//165 164//164 153//153
f 165//165 154//154 155//155
f 165//165 155//155 160//160
f 166//166 156//156 167//167
f 167//167 156//156 157//157
f 166//166 160//160 156//156
f 167//167 157//157 168//168
f 159//159 168//168 157//157
f 161//161 169//169 158//158
f 158//158 169//169 159//159
f 169//169 170//170 159//159
f 159//159 170//170 168//168
f 171//171 160//160 166//166
f 171//171 165//165 160//160
f 172//172 161//161 162//162
f 161//161 172//172 169//169
f 173//173 162//162 163//163
f 172//172 162//162 174//174
f 173//173 174//174 162//162
f 175//175 173//173 163//163
f 164//164 175//175 163//163
f 171//171 164//164 165//165
f 175//175 164//164 176//176
f 171//171 176//176 164//164
f 177//177 166//166 178//178
f 179//179 166//166 180//180
f 166//166 167//167 180//180
f 177//177 171//171 166//166
f 179//179 178//178 166//166
f 180//180 167//167 168//168
f 168//168 181//181 180//180
f 168//168 170//170 181//181
f 172//172 182//182 169//169
f 169//169 182//182 170//170
f 170//170 183//183 181//181
f 170//170 184//184 183//183
f 170//170 182//182 184//184
f 171//171 185//185 176//176
f 171//171 177//177 185//185
f 172//172 186//186 182//182
f 186//186 172//172 174//174
f 173//173 188//188 187//187
f 174//174 173//173 187//187
f 173//173 175//175 188//188
f 186//186 174//174 189//189
f 174//174 187//187 189//189
f 175//175 176//176 188//188
f 188//188 176//176 185//185
f 179//179 177//177 178//178
f 179//179 185//185 177//177
f 190//190 179//179 191//191
f 190//190 192//192 179//179
f 191//191 179//179 180//180
f 179//179 192//192 185//185
f 191//191 180//180 181//181
f 193//193 181//181 183//183
f 193//193 191//191 181//181
f 194//194 182//182 186//186
f 194//194 184//184 182//182
f 183//183 184//184 193//193
f 194//194 195//195 184//184
f 184//184 195//195 193//193
f 192//192 196//196 185//185
f 188//188 185//185 196//196
f 197//197 186//186 189//189
f 197//197 194//194 186//186
f 187//187 196//196 198//198
f 187//187 197//197 189//189
f 187//187 188//188 196//196
f 187//187 198//198 197//197
f 195//195 199//199 190//190
f 192//192 190//190 199//199
f 195//195 190//190 191//191
f 195//195 191//191 193//193
f 192//192 199//199 200//200
f 192//192 200//200 196//196
f 199//199 194//194 197//197
f 195//195 194//194 199//199
f 200//200 198//198 196//196
f 198//198 199//199 197//197
f 198//198 200//200 199//199
f 203//201 201//201 202//201
